<svg width="100" height="100" viewBox="0 0 100 100" fill="none" xmlns="http://www.w3.org/2000/svg">
<path d="M83.8167 24.5875C83.4783 24.1384 83.1167 23.7073 82.7334 23.2959C83.1189 22.2685 83.4118 21.2087 83.6084 20.1292C84.1888 16.18 83.6847 12.1473 82.15 8.46252C82.15 8.46252 77.4834 7.00418 66.775 14.2125C62.2288 12.9573 57.533 12.3265 52.8167 12.3375C48.0869 12.3292 43.3776 12.9599 38.8167 14.2125C28.1084 6.92085 23.4417 8.46252 23.4417 8.46252C21.9254 12.1083 21.4215 16.0958 21.9834 20.0042C22.1811 21.1286 22.4881 22.2311 22.9 23.2959C22.525 23.7125 22.15 24.1709 21.8167 24.5875C18.7075 28.4876 17.057 33.3506 17.15 38.3375C17.1402 39.5203 17.1958 40.7026 17.3167 41.8792C18.65 60.3375 30.9417 64.6292 42.65 65.9625C40.9929 67.5035 39.8692 69.532 39.4417 71.7542C39.0544 73.2362 38.8722 74.7643 38.9 76.2959V81.7542C34.2375 82.1709 29.4542 81.4917 27.9709 77.3334C26.3786 73.3532 23.7378 69.8788 20.3292 67.2792C20.0801 67.1444 19.8431 66.9882 19.6209 66.8125C19.3216 66.0259 18.7913 65.3482 18.0997 64.8686C17.4081 64.3889 16.5875 64.1297 15.7459 64.125H15.725C14.6236 64.125 13.5669 64.5611 12.7861 65.338C12.0053 66.1149 11.5639 67.1694 11.5584 68.2709C11.5459 71.6542 14.9334 73.8417 16.3209 74.5834C17.9419 76.2168 19.2459 78.1368 20.1667 80.2459C21.6834 84.5084 26.1209 90.9875 38.775 90.1459L38.7834 90.5542L38.8 91.6709C38.8 92.7759 39.239 93.8358 40.0204 94.6172C40.8018 95.3986 41.8616 95.8375 42.9667 95.8375H62.6084C63.7134 95.8375 64.7732 95.3986 65.5546 94.6172C66.336 93.8358 66.775 92.7759 66.775 91.6709C66.775 91.6709 66.8084 78.5042 66.8084 76.2959C66.8361 74.7643 66.6539 73.2362 66.2667 71.7542L66.2584 71.7292L66.275 71.7542C66.2375 71.6084 66.1834 71.4917 66.1417 71.35C65.6774 69.2856 64.6032 67.4085 63.0584 65.9625L63.1084 66.05L63.025 65.9667C74.7334 64.6334 86.9417 60.2584 88.275 41.8834C88.3959 40.7068 88.4516 39.5244 88.4417 38.3417C88.5156 33.3647 86.8835 28.5081 83.8167 24.5875Z" fill="url(#paint0_linear_52_24)"/>
<defs>
<linearGradient id="paint0_linear_52_24" x1="31" y1="34" x2="80.5" y2="160" gradientUnits="userSpaceOnUse">
<stop stop-color="#C254FF"/>
<stop offset="1" stop-color="#27BEFF"/>
</linearGradient>
</defs>
</svg>
